<?xml version="1.0" encoding="UTF-8" standalone="no"?>
<!-- Created with Inkscape (http://www.inkscape.org/) -->

<svg
   xmlns:dc="http://purl.org/dc/elements/1.1/"
   xmlns:cc="http://creativecommons.org/ns#"
   xmlns:rdf="http://www.w3.org/1999/02/22-rdf-syntax-ns#"
   xmlns:svg="http://www.w3.org/2000/svg"
   xmlns="http://www.w3.org/2000/svg"
   xmlns:xlink="http://www.w3.org/1999/xlink"
   xmlns:sodipodi="http://sodipodi.sourceforge.net/DTD/sodipodi-0.dtd"
   xmlns:inkscape="http://www.inkscape.org/namespaces/inkscape"
   width="22"
   height="22"
   id="svg3760"
   version="1.1"
   inkscape:version="0.91+devel r"
   sodipodi:docname="document-share.svg">
  <defs
     id="defs3762">
    <linearGradient
       inkscape:collect="always"
       xlink:href="#linearGradient4303"
       id="linearGradient4238"
       x1="400.57144"
       y1="545.79797"
       x2="400.57144"
       y2="517.79797"
       gradientUnits="userSpaceOnUse"
       gradientTransform="translate(-5.9283447e-6,0)" />
    <linearGradient
       id="linearGradient4303"
       inkscape:collect="always">
      <stop
         id="stop4305"
         offset="0"
         style="stop-color:#c6cdd1;stop-opacity:1" />
      <stop
         id="stop4307"
         offset="1"
         style="stop-color:#e0e5e7;stop-opacity:1" />
    </linearGradient>
    <linearGradient
       inkscape:collect="always"
       xlink:href="#linearGradient4227"
       id="linearGradient4155"
       x1="389.57144"
       y1="518.79797"
       x2="408.57144"
       y2="537.79797"
       gradientUnits="userSpaceOnUse"
       gradientTransform="translate(120.71429,82.849876)" />
    <linearGradient
       id="linearGradient4227"
       inkscape:collect="always">
      <stop
         id="stop4229"
         offset="0"
         style="stop-color:#292c2f;stop-opacity:1" />
      <stop
         id="stop4231"
         offset="1"
         style="stop-color:#000000;stop-opacity:0;" />
    </linearGradient>
    <linearGradient
       gradientTransform="translate(505.28572,598.64788)"
       inkscape:collect="always"
       xlink:href="#linearGradient4159"
       id="linearGradient4370"
       x1="16"
       y1="30"
       x2="16"
       y2="1.999974"
       gradientUnits="userSpaceOnUse" />
    <linearGradient
       inkscape:collect="always"
       id="linearGradient4159">
      <stop
         style="stop-color:#2a2c2f;stop-opacity:1"
         offset="0"
         id="stop4161" />
      <stop
         style="stop-color:#424649;stop-opacity:1"
         offset="1"
         id="stop4163" />
    </linearGradient>
    <linearGradient
       gradientTransform="translate(505.28572,598.64788)"
       inkscape:collect="always"
       xlink:href="#linearGradient4159"
       id="linearGradient4434"
       x1="16"
       y1="20"
       x2="16"
       y2="12"
       gradientUnits="userSpaceOnUse" />
    <linearGradient
       y2="517.79797"
       x2="400.57144"
       y1="545.79797"
       x1="400.57144"
       gradientTransform="translate(120.71428,82.849876)"
       gradientUnits="userSpaceOnUse"
       id="linearGradient3053"
       xlink:href="#linearGradient4303"
       inkscape:collect="always" />
    <linearGradient
       inkscape:collect="always"
       xlink:href="#linearGradient4303"
       id="linearGradient3054"
       gradientUnits="userSpaceOnUse"
       gradientTransform="translate(120.71428,82.849876)"
       x1="400.57144"
       y1="545.79797"
       x2="400.57144"
       y2="517.79797" />
    <linearGradient
       inkscape:collect="always"
       xlink:href="#linearGradient4227"
       id="linearGradient3056"
       gradientUnits="userSpaceOnUse"
       gradientTransform="translate(120.71429,82.849876)"
       x1="389.57144"
       y1="518.79797"
       x2="408.57144"
       y2="537.79797" />
    <linearGradient
       inkscape:collect="always"
       xlink:href="#linearGradient4159"
       id="linearGradient3058"
       gradientUnits="userSpaceOnUse"
       gradientTransform="translate(505.28572,598.64788)"
       x1="16"
       y1="30"
       x2="16"
       y2="1.999974" />
    <linearGradient
       inkscape:collect="always"
       xlink:href="#linearGradient4159"
       id="linearGradient3060"
       gradientUnits="userSpaceOnUse"
       gradientTransform="translate(505.28572,598.64788)"
       x1="16"
       y1="20"
       x2="16"
       y2="12" />
  </defs>
  <sodipodi:namedview
     id="base"
     pagecolor="#ffffff"
     bordercolor="#666666"
     borderopacity="1.0"
     inkscape:pageopacity="0.0"
     inkscape:pageshadow="2"
     inkscape:zoom="24.50705"
     inkscape:cx="7.0192637"
     inkscape:cy="11.944967"
     inkscape:document-units="px"
     inkscape:current-layer="layer1"
     showgrid="true"
     fit-margin-top="0"
     fit-margin-left="0"
     fit-margin-right="0"
     fit-margin-bottom="0"
     inkscape:window-width="1366"
     inkscape:window-height="672"
     inkscape:window-x="-4"
     inkscape:window-y="25"
     inkscape:window-maximized="1"
     inkscape:showpageshadow="false"
     showguides="true">
    <inkscape:grid
       type="xygrid"
       id="grid4106"
       originx="-0.99998557px"
       originy="-1.0000252px" />
    <sodipodi:guide
       position="2.00001,19.99997"
       orientation="0,18"
       id="guide4229" />
    <sodipodi:guide
       position="20.00001,19.99997"
       orientation="18,0"
       id="guide4231" />
    <sodipodi:guide
       position="20.00001,1.99997"
       orientation="0,-18"
       id="guide4233" />
    <sodipodi:guide
       position="2.00001,1.99997"
       orientation="-18,0"
       id="guide4235" />
    <sodipodi:guide
       position="3.00001,18.99997"
       orientation="0,16"
       id="guide4237" />
    <sodipodi:guide
       position="19.00001,18.99997"
       orientation="16,0"
       id="guide4239" />
    <sodipodi:guide
       position="19.00001,2.99997"
       orientation="0,-16"
       id="guide4241" />
    <sodipodi:guide
       position="3.00001,2.99997"
       orientation="-16,0"
       id="guide4243" />
    <sodipodi:guide
       position="2.9999956,18.999992"
       orientation="6,0"
       id="guide4155" />
    <sodipodi:guide
       position="8.9999956,18.999992"
       orientation="0,-6"
       id="guide4161" />
    <sodipodi:guide
       position="18.999996,18.999992"
       orientation="0,-6"
       id="guide4169" />
  </sodipodi:namedview>
  <metadata
     id="metadata3765">
    <rdf:RDF>
      <cc:Work
         rdf:about="">
        <dc:format>image/svg+xml</dc:format>
        <dc:type
           rdf:resource="http://purl.org/dc/dcmitype/StillImage" />
        <dc:title />
      </cc:Work>
    </rdf:RDF>
  </metadata>
  <g
     inkscape:label="Capa 1"
     inkscape:groupmode="layer"
     id="layer1"
     transform="translate(-551.28571,-607.64788)">
    <path
       style="fill:#4d4d4d;fill-opacity:1;stroke:none"
       d="M 16 3 A 2.0000093 2 0 0 0 14 5 A 2.0000093 2 0 0 0 16 7 A 2.0000093 2 0 0 0 18 5 A 2.0000093 2 0 0 0 16 3 z M 11.5 7 A 0.5 0.5 0 0 0 11 7.5 A 0.5 0.5 0 0 0 11.5 8 A 0.5 0.5 0 0 0 12 7.5 A 0.5 0.5 0 0 0 11.5 7 z M 9.5 8 A 0.5 0.49999139 0 0 0 9 8.5 A 0.5 0.49999139 0 0 0 9.5 9 A 0.5 0.49999139 0 0 0 10 8.5 A 0.5 0.49999139 0 0 0 9.5 8 z M 6 9 A 2 2.0000086 0 0 0 4 11 A 2 2.0000086 0 0 0 6 13 A 2 2.0000086 0 0 0 8 11 A 2 2.0000086 0 0 0 6 9 z M 9.5 13 A 0.50000942 0.5 0 0 0 9 13.5 A 0.50000942 0.5 0 0 0 9.5 14 A 0.50000942 0.5 0 0 0 10 13.5 A 0.50000942 0.5 0 0 0 9.5 13 z M 11.5 14 A 0.5 0.5 0 0 0 11 14.5 A 0.5 0.5 0 0 0 11.5 15 A 0.5 0.5 0 0 0 12 14.5 A 0.5 0.5 0 0 0 11.5 14 z M 16 15 A 2.0000093 2 0 0 0 14 17 A 2.0000093 2 0 0 0 16 19 A 2.0000093 2 0 0 0 18 17 A 2.0000093 2 0 0 0 16 15 z "
       transform="translate(551.28571,607.64788)"
       id="path3062" />
  </g>
</svg>
